<svg xmlns="http://www.w3.org/2000/svg" version="1.1" xmlns:xlink="http://www.w3.org/1999/xlink" xmlns:svgjs="http://svgjs.com/svgjs" width="512" height="512" x="0" y="0" viewBox="0 0 512.008 512.008" style="enable-background:new 0 0 512 512" xml:space="preserve"><g><path d="m130.813 416.738-30.206-8.151-17.087-26.208c-5.909-9.064-19.218-9.071-25.131 0l-17.087 26.208-30.206 8.151c-10.447 2.82-14.565 15.475-7.766 23.901l19.646 24.35-1.581 31.247c-.548 10.809 10.216 18.631 20.331 14.771l29.229-11.16 29.229 11.16c10.096 3.851 20.881-3.938 20.331-14.771l-1.581-31.247 19.646-24.35c6.794-8.421 2.686-21.079-7.767-23.901zM500.912 416.738l-30.206-8.151-17.087-26.208c-5.909-9.064-19.218-9.071-25.131 0l-17.087 26.208-30.206 8.151c-10.447 2.82-14.565 15.475-7.766 23.901l19.646 24.35-1.581 31.247c-.548 10.809 10.216 18.631 20.331 14.771l29.229-11.16 29.229 11.16c10.098 3.852 20.88-3.947 20.331-14.771l-1.581-31.247 19.646-24.35c6.795-8.421 2.687-21.079-7.767-23.901zM346.05 381.25l-49.487-13.354-27.993-42.938c-5.909-9.064-19.218-9.071-25.131 0l-27.993 42.938-49.487 13.354c-10.448 2.821-14.565 15.475-7.766 23.901l32.186 39.893-2.591 51.191c-.548 10.807 10.214 18.633 20.331 14.772l47.886-18.284 47.886 18.284c10.096 3.851 20.88-3.946 20.331-14.772l-2.591-51.191 32.186-39.893c6.795-8.422 2.687-21.079-7.767-23.901zM136.004 301.001h240c8.284 0 15-6.716 15-15v-61c0-41.355-33.645-75-75-75h-120c-41.355 0-75 33.645-75 75v61c0 8.284 6.716 15 15 15zM255.603 135.001c37.22 0 67.5-30.28 67.5-67.5s-30.281-67.5-67.5-67.5-67.5 30.281-67.5 67.5 30.28 67.5 67.5 67.5z" fill="#1d1d1d" data-original="#000000"></path></g></svg>