<svg xmlns="http://www.w3.org/2000/svg" version="1.1" xmlns:xlink="http://www.w3.org/1999/xlink" xmlns:svgjs="http://svgjs.com/svgjs" width="512" height="512" x="0" y="0" viewBox="0 0 512 512" style="enable-background:new 0 0 512 512" xml:space="preserve"><g><path d="M196.9 315.1H432c11.6 0 21 9.4 21 21v76.2c0 11.6-9.4 21-21 21H196.9V481c0 9.2-11.1 14-17.8 7.6L75 389.4c-8.7-8.3-8.7-22.1 0-30.4l104.2-99.2c6.7-6.4 17.8-1.6 17.8 7.6zM315.1 78.7H80c-11.6 0-21 9.4-21 21v76.2c0 11.6 9.4 21 21 21h235.1v47.7c0 9.2 11.1 14 17.8 7.6L437 153c8.7-8.3 8.7-22.1 0-30.4L332.9 23.3c-6.7-6.4-17.8-1.6-17.8 7.6z" fill="#ffffff" data-original="#000000"></path></g></svg>