<svg xmlns="http://www.w3.org/2000/svg" viewBox="0 0 25 25" style="enable-background:new 0 0 25 25" xml:space="preserve"><path d="M13.1 5.8h5.2l-4.5 11.3c0 .1-.1.2-.1.2 0 3.1 2.5 5.6 5.6 5.6s5.6-2.5 5.6-5.6c0-.1 0-.2-.1-.2L20.3 5.9h2.1c.4 0 .7-.3.7-.7s-.3-.7-.7-.7h-9.3V2.6c0-.4-.3-.7-.7-.7-.4 0-.7.3-.7.7v1.9H2.5c-.4 0-.7.3-.7.7s.3.7.7.7h2.2L.1 17.1c0 .1-.1.2-.1.2 0 3.1 2.5 5.6 5.6 5.6s5.6-2.5 5.6-5.6c0-.1 0-.2-.1-.2L6.7 5.8H13.1zM5.7 21.6c-2.1 0-3.8-1.5-4.2-3.6h8.3c-.3 2.1-2.1 3.6-4.1 3.6zm3.9-4.9H1.8L5.7 7l3.9 9.7zM19.3 7l3.9 9.7h-7.8L19.3 7zm0 14.6c-2.1 0-3.8-1.5-4.2-3.6h8.3c-.2 2.1-2 3.6-4.1 3.6z"></path></svg>