<svg width="207" height="207" viewBox="0 0 207 207" fill="none" xmlns="http://www.w3.org/2000/svg">
<circle cx="103.5" cy="103.5" r="102.5" fill="#FAF9F3"/>
<path d="M129.5 89H111L103 139H121.5L129.5 89Z" fill="#213420" stroke="#213420"/>
<path d="M175.5 69.5H114.5H108L105.5 83.5H111.5H154.5L145 139H163.5L175.5 69.5Z" fill="#213420" stroke="#213420"/>
<path d="M59.5 69H40.5L29 138.5H48L52.5 111H77.5L73 138.5H92L100.5 88.5H82L80.5 96H55L59.5 69Z" fill="#213420"/>
<path d="M101.5 82.5H82.5L85 69H103.5L101.5 82.5Z" fill="#213420"/>
<path d="M59.5 69H40.5L29 138.5H48L52.5 111H77.5L73 138.5H92L100.5 88.5H82L80.5 96H55L59.5 69Z" stroke="#213420"/>
<path d="M101.5 82.5H82.5L85 69H103.5L101.5 82.5Z" stroke="#213420"/>
</svg>
