<svg xmlns="http://www.w3.org/2000/svg" version="1.1" xmlns:xlink="http://www.w3.org/1999/xlink" xmlns:svgjs="http://svgjs.com/svgjs" width="512" height="512" x="0" y="0" viewBox="0 0 512 512" style="enable-background:new 0 0 512 512" xml:space="preserve" class=""><g><path d="M421.401 258.995c0-16.133-13.079-29.212-29.212-29.212s-29.212 13.079-29.212 29.212v-19c0-16.133-13.079-29.212-29.212-29.212s-29.212 13.079-29.212 29.212v-16c0-16.133-13.079-29.212-29.212-29.212s-29.212 13.079-29.212 29.212v-118.5c0-16.133-13.079-29.212-29.212-29.212s-29.212 13.079-29.212 29.212v152.57c-25.991 2.076-46.508 23.877-46.508 50.393v63.439l66.057 82.41-.377 57.693h168.437l.276-57.993 45.811-71.352zM201.267 0h29.957v48.598h-29.957z" fill="#1d1d1d" data-original="#000000"></path><path d="M293.293 115.668h48.598v29.957h-48.598zM90.599 115.668h48.598v29.957H90.599zM263.638 62.061l37.283-37.282 21.18 21.18-37.283 37.282zM110.332 45.942l21.18-21.18 37.282 37.284-21.18 21.18z" fill="#1d1d1d" data-original="#000000"></path></g></svg>