<svg xmlns="http://www.w3.org/2000/svg" viewBox="0 0 25 25" style="enable-background:new 0 0 25 25" xml:space="preserve"><path d="M22.8 4.8c-1.2-1.3-2.8-2-4.6-2-2.5 0-4.1 1.4-5 2.6l-.6.9-.6-.9c-.9-1.2-2.5-2.6-5-2.6-1.8 0-3.4.7-4.6 2C1.2 6 .6 7.6.6 9.4c0 1.9.8 3.7 2.5 5.5 1.5 1.7 3.7 3.4 6.1 5.4.9.7 1.9 1.5 2.9 2.4.1.1.3.2.5.2s.3-.1.5-.2c1-.8 2-1.6 2.9-2.4 2.5-2 4.6-3.8 6.1-5.4 1.7-1.9 2.5-3.7 2.5-5.5-.1-1.8-.7-3.4-1.8-4.6zM15 19.3c-.8.6-1.6 1.3-2.5 2-.9-.7-1.7-1.4-2.5-2-4.8-3.9-8-6.5-8-9.9 0-1.4.5-2.7 1.4-3.7.9-1 2.2-1.5 3.6-1.5 1.9 0 3.2 1.1 3.9 2.1.6.8 1 1.7 1.1 2 .1.3.4.5.7.5s.6-.2.7-.5c.1-.3.4-1.2 1.1-2 .7-.9 1.9-2.1 3.9-2.1 1.4 0 2.7.5 3.6 1.5.9 1 1.4 2.3 1.4 3.7-.3 3.4-3.5 6-8.4 9.9z" style="fill:#020203"></path></svg>