<svg xmlns="http://www.w3.org/2000/svg" viewBox="0 0 511 511.9">
    <path fill="#283c28" d="M510.949219 150.5c-1.199219-27.199219-5.597657-45.898438-11.898438-62.101562-6.5-17.199219-16.5-32.597657-29.601562-45.398438-12.800781-13-28.300781-23.101562-45.300781-29.5C407.851562 7.199219 389.25 2.800781 362.050781 1.601562 334.648438.300781 325.949219 0 256.449219 0s-78.199219.300781-105.5 1.5C123.75 2.699219 105.050781 7.101562 88.851562 13.398438 71.648438 19.898438 56.25 29.898438 43.449219 43c-13 12.800781-23.097657 28.300781-29.5 45.300781C7.648438 104.601562 3.25 123.199219 2.050781 150.398438.75 177.800781.449219 186.5.449219 256s.300781 78.199219 1.5 105.5c1.199219 27.199219 5.601562 45.898438 11.902343 62.101562 6.5 17.199219 16.597657 32.597657 29.597657 45.398438C56.25 482 71.75 492.101562 88.75 498.5c16.300781 6.300781 34.898438 10.699219 62.101562 11.898438 27.296876 1.203124 36 1.5 105.5 1.5s78.199219-.296876 105.5-1.5C389.050781 509.199219 407.75 504.800781 423.949219 498.5c34.402343-13.300781 61.601562-40.5 74.902343-74.898438C505.148438 407.300781 509.550781 388.699219 510.75 361.5c1.199219-27.300781 1.5-36 1.5-105.5s-.101562-78.199219-1.300781-105.5zm-46.097657 209c-1.101562 25-5.300781 38.5-8.800781 47.5-8.601562 22.300781-26.300781 40-48.601562 48.601562-9 3.5-22.597657 7.699219-47.5 8.796876-27 1.203124-35.097657 1.5-103.398438 1.5s-76.5-.296876-103.402343-1.5c-25-1.097657-38.5-5.296876-47.5-8.796876C94.550781 451.5 84.449219 445 76.25 436.5c-8.5-8.300781-15-18.300781-19.101562-29.398438-3.5-9-7.699219-22.601562-8.796876-47.5-1.203124-27-1.5-35.101562-1.5-103.402343s.296876-76.5 1.5-103.398438c1.097657-25 5.296876-38.5 8.796876-47.5C61.25 94.199219 67.75 84.101562 76.351562 75.898438c8.296876-8.5 18.296876-15 29.398438-19.097657 9-3.5 22.601562-7.699219 47.5-8.800781 27-1.199219 35.101562-1.5 103.398438-1.5 68.402343 0 76.5.300781 103.402343 1.5 25 1.101562 38.5 5.300781 47.5 8.800781 11.097657 4.097657 21.199219 10.597657 29.398438 19.097657 8.5 8.300781 15 18.300781 19.101562 29.402343 3.5 9 7.699219 22.597657 8.800781 47.5 1.199219 27 1.5 35.097657 1.5 103.398438s-.300781 76.300781-1.5 103.300781zm0 0"></path>
    <path fill="#283c28" d="M256.449219 124.5c-72.597657 0-131.5 58.898438-131.5 131.5s58.902343 131.5 131.5 131.5c72.601562 0 131.5-58.898438 131.5-131.5s-58.898438-131.5-131.5-131.5zm0 216.800781c-47.097657 0-85.300781-38.199219-85.300781-85.300781s38.203124-85.300781 85.300781-85.300781C303.550781 170.699219 341.75 208.898438 341.75 256s-38.199219 85.300781-85.300781 85.300781zM423.851562 119.300781c0 16.953125-13.746093 30.699219-30.703124 30.699219-16.953126 0-30.699219-13.746094-30.699219-30.699219 0-16.957031 13.746093-30.699219 30.699219-30.699219 16.957031 0 30.703124 13.742188 30.703124 30.699219zm0 0"></path>
</svg>