<?xml version="1.0" encoding="utf-8"?>
<!-- Generator: Adobe Illustrator 23.1.0, SVG Export Plug-In . SVG Version: 6.00 Build 0)  -->
<!DOCTYPE svg PUBLIC "-//W3C//DTD SVG 1.1//EN" "http://www.w3.org/Graphics/SVG/1.1/DTD/svg11.dtd" [
	<!ENTITY ns_extend "http://ns.adobe.com/Extensibility/1.0/">
	<!ENTITY ns_ai "http://ns.adobe.com/AdobeIllustrator/10.0/">
	<!ENTITY ns_graphs "http://ns.adobe.com/Graphs/1.0/">
	<!ENTITY ns_vars "http://ns.adobe.com/Variables/1.0/">
	<!ENTITY ns_imrep "http://ns.adobe.com/ImageReplacement/1.0/">
	<!ENTITY ns_sfw "http://ns.adobe.com/SaveForWeb/1.0/">
	<!ENTITY ns_custom "http://ns.adobe.com/GenericCustomNamespace/1.0/">
	<!ENTITY ns_adobe_xpath "http://ns.adobe.com/XPath/1.0/">
]>
<svg version="1.1" id="Layer_1" xmlns:x="&ns_extend;" xmlns:i="&ns_ai;" xmlns:graph="&ns_graphs;"
	 xmlns="http://www.w3.org/2000/svg" xmlns:xlink="http://www.w3.org/1999/xlink" x="0px" y="0px" viewBox="0 0 694.469 66.604"
	 style="enable-background:new 0 0 694.469 66.604;" xml:space="preserve">
<style type="text/css">
	.Drop_x0020_Shadow{fill:none;}
	.Outer_x0020_Glow_x0020_5_x0020_pt{fill:none;}
	.Jive_GS{fill:#A6D0E4;}
	.st0{fill:#283C28;}
</style>
<metadata>
	<sfw  xmlns="&ns_sfw;">
		<slices></slices>
		<sliceSourceBounds  bottomLeftOrigin="true" height="66.604" width="694.469" x="157.131" y="-533.302"></sliceSourceBounds>
		<optimizationSettings>
			<targetSettings  fileFormat="JPEGFormat" targetSettingsID="0">
				
					<JPEGFormat  blurAmount="0" embedICCProfile="false" matteColor="#FFFFFF" noMatteColor="false" optimized="true" progressive="true" quality="100">
					</JPEGFormat>
			</targetSettings>
		</optimizationSettings>
	</sfw>
</metadata>
<g>
	<polygon class="st0" points="162.452,50.48 158.711,66.604 186.247,66.604 191.859,50.48 	"/>
	<path class="st0" d="M165.797,46.701h27.378l10.976-31.53c1.453-4.256,0.483-7.847-2.915-10.777C197.839,1.465,192.909,0,186.447,0
		h-24.403c-13.668,0-24.945,4.719-32.186,15.171L91.7,66.604h29.088l14.739-19.932h30.281L165.797,46.701z M142.707,33.166
		l12.048-14.757c2.124-1.554,4.507-2.313,6.849-2.313h11.213c2.34,0,3.226,0.772,2.653,2.313l-4.955,14.757H142.707z"/>
</g>
<g>
	<polygon class="st0" points="458.374,46.701 474.669,0 447.135,0 430.839,46.701 	"/>
	<polygon class="st0" points="429.52,50.48 423.894,66.604 451.43,66.604 457.056,50.48 	"/>
</g>
<g>
	<path class="st0" d="M504.942,46.701l10.253-29.403c0.325-0.801,1.095-1.202,2.313-1.202h36.386c1.216,0,1.665,0.402,1.34,1.202
		l-10.253,29.403h27.633l10.928-31.531c1.454-4.256,0.484-7.847-2.914-10.777C577.231,1.465,572.301,0,565.839,0H514
		c-6.463,0-11.978,1.465-16.539,4.394c-4.564,2.93-7.574,6.521-9.028,10.777l-10.928,31.531H504.942z"/>
	<path class="st0" d="M542.207,50.48c-0.105,0.007-0.193,0.028-0.307,0.028h-36.385c-0.178,0-0.335-0.011-0.483-0.028h-28.837
		l-0.33,0.953c-1.548,4.256-0.601,7.849,2.844,10.777c3.444,2.93,8.398,4.394,14.859,4.394h51.84c6.463,0,11.95-1.464,16.468-4.394
		c4.517-2.929,7.549-6.522,9.098-10.777l0.33-0.953H542.207z"/>
</g>
<path class="st0" d="M110.302,9.343c-0.823-2.775-2.825-5.026-6.007-6.753C101.115,0.864,97.136,0,92.359,0H11.851L6.231,16.103
	H45.15l0.003-0.008h35.262c0.749,0,1.197,0.247,1.344,0.74c0.054,0.185,0.052,0.34-0.003,0.462l-4.792,13.691
	c-0.324,0.802-1.048,1.202-2.171,1.202H39.528l4.301-12.31H16.303L0,66.604h27.535l6.572-19.056h44.394
	c6.463,0,11.97-1.48,16.525-4.44c4.554-2.96,7.567-6.536,9.041-10.731l5.997-17.206C110.788,13.198,110.868,11.255,110.302,9.343z"
	/>
<path class="st0" d="M420.918,4.44C417.512,1.48,412.577,0,406.115,0h-81.632l-5.619,16.103h38.918l0.003-0.008h36.385
	c1.216,0,1.665,0.402,1.34,1.202l-3.788,10.916c-0.233,0.803-0.957,1.203-2.172,1.203h-36.386l3.307-9.535h-27.536l-16.303,46.722
	h27.536l7.576-21.831h13.346l16.026,21.831h31.609l-18.695-21.831h0.562c7.96,0,14.283-1.495,18.969-4.487
	c4.685-2.99,7.773-6.552,9.266-10.684l4.992-14.431C425.291,10.978,424.325,7.401,420.918,4.44z"/>
<g>
	<polygon class="st0" points="625.992,19.882 609.695,66.604 637.231,66.604 653.526,19.882 	"/>
	<polygon class="st0" points="598.938,0 593.314,16.096 627.312,16.096 627.31,16.103 654.844,16.103 654.847,16.096 
		688.845,16.096 694.469,0 	"/>
</g>
<g>
	<polygon class="st0" points="244.371,19.882 228.074,66.604 255.61,66.604 271.905,19.882 	"/>
	<polygon class="st0" points="217.317,0 211.693,16.096 245.691,16.096 245.688,16.103 273.223,16.103 273.226,16.096 
		307.224,16.096 312.848,0 	"/>
</g>
</svg>
