<svg width="811" height="83" viewBox="0 0 811 83" fill="none" xmlns="http://www.w3.org/2000/svg">
<path d="M446.5 32H428L420 82H438.5L446.5 32Z" fill="#213420" stroke="#213420"/>
<path d="M492.5 12.5H431.5H425L422.5 26.5H428.5H471.5L462 82H480.5L492.5 12.5Z" fill="#213420" stroke="#213420"/>
<path d="M30.5 13H11.5L0 82.5H19L23.5 55H48.5L44 82.5H63L71.5 32.5H53L51.5 40H26L30.5 13Z" fill="#213420"/>
<path d="M72.5 26.5H53.5L56 13H74.5L72.5 26.5Z" fill="#213420"/>
<path d="M30.5 13H11.5L0 82.5H19L23.5 55H48.5L44 82.5H63L71.5 32.5H53L51.5 40H26L30.5 13Z" stroke="#213420"/>
<path d="M72.5 26.5H53.5L56 13H74.5L72.5 26.5Z" stroke="#213420"/>
<path d="M90 30.5C85.5 37.5 83.297 53.274 86.5 65.5L111.5 66C106.759 63.743 105 60 104 55.5C103 51 103 46 108 37C112.084 29.898 119 26 126 27.5C133 29 136.369 34.55 136 43C134.236 56.015 129.189 61.646 119 66L146.5 65.5C151.028 57.254 152.601 52.34 153.5 43C154.137 33.697 151.392 24.892 146.5 20C141.608 15.108 136 11 126 11C116 11 112.566 12.597 106 15.5C98.414 19.379 94.5 23.5 90 30.5Z" fill="#213420"/>
<path d="M143 70.5H89C96.946 79.995 105.5 83.5 117.5 83C129.5 82.5 135.033 78.029 143 70.5Z" fill="#213420"/>
<path d="M90 30.5C85.5 37.5 83.297 53.274 86.5 65.5L111.5 66C106.759 63.743 105 60 104 55.5C103 51 103 46 108 37C112.084 29.898 119 26 126 27.5C133 29 136.369 34.55 136 43C134.236 56.015 129.189 61.646 119 66L146.5 65.5C151.028 57.254 152.601 52.34 153.5 43C154.137 33.697 151.392 24.892 146.5 20C141.608 15.108 136 11 126 11C116 11 112.566 12.597 106 15.5C98.414 19.379 94.5 23.5 90 30.5Z" stroke="#213420"/>
<path d="M143 70.5H89C96.946 79.995 105.5 83.5 117.5 83C129.5 82.5 135.033 78.029 143 70.5Z" stroke="#213420"/>
<path d="M245 26.5L247.5 12.5H266L263.5 26.5H245Z" fill="#213420"/>
<path d="M263 32H244L236 82H251.5L283 45H283.5L277 82H296L307.5 12.5H291.5L260.5 49H260L263 32Z" fill="#213420"/>
<path d="M245 26.5L247.5 12.5H266L263.5 26.5H245Z" stroke="#213420"/>
<path d="M263 32H244L236 82H251.5L283 45H283.5L277 82H296L307.5 12.5H291.5L260.5 49H260L263 32Z" stroke="#213420"/>
<path d="M322 27L324.5 13H343H343.5L341 27L340 32.5L337 49.5H337.5L368.5 13H384.5L373 82.5H354L360.5 45.5H360L328.5 82.5H313L321 32.5L322 27Z" fill="#213420"/>
<path d="M324.5 13L322 27L321 32.5L313 82.5H328.5L360 45.5H360.5L354 82.5H373L384.5 13H368.5L337.5 49.5H337L340 32.5L341 27L343.5 13H324.5ZM324.5 13H343" stroke="#213420"/>
<path d="M346.5 0L344 8H367.5L370.5 0H346.5Z" fill="#213420" stroke="#213420"/>
<path d="M612 32H593L584.5 82H603.5L607 61C607 61 618.5 61.5 623 61C627.5 60.5 639.246 55.504 645 46.5C648.834 39.234 649.5 33 648 26.5C646.5 20 639.5 12 630 12H596H588L586 26.5H594C594 26.5 615.5 26 620.5 26.5C625.5 27 628 31 628.5 34C629 37 627.5 41 625.5 43.5C623.5 46 616.933 47.039 609.5 46.5L612 32Z" fill="#213420" stroke="#213420"/>
<path d="M688 32H665.5C661.77 40.304 660.72 44.9 660.5 53C660.75 63.24 662.47 68.184 668.5 75.5C675.95 81.446 681.22 82.878 692 83C697.62 82.412 700.71 81.794 706 79.5C716.79 73.588 721.17 68.43 726.5 56.5C729.97 46.95 730.35 41.586 728.5 32H708C710.62 40.5 709.5 47 707 54.5C704.5 62 699.5 67 690.5 66.5C681.5 66 679 57 679.5 51C680 45 682.59 38.319 688 32Z" fill="#213420"/>
<path d="M726.5 26.5H669C678.91 15.837 689 11 702 11.5C715 12 719.68 16.869 726.5 26.5Z" fill="#213420"/>
<path d="M688 32H665.5C661.77 40.304 660.72 44.9 660.5 53C660.75 63.24 662.47 68.184 668.5 75.5C675.95 81.446 681.22 82.878 692 83C697.62 82.412 700.71 81.794 706 79.5C716.79 73.588 721.17 68.43 726.5 56.5C729.97 46.95 730.35 41.586 728.5 32H708C710.62 40.5 709.5 47 707 54.5C704.5 62 699.5 67 690.5 66.5C681.5 66 679 57 679.5 51C680 45 682.59 38.319 688 32Z" stroke="#213420"/>
<path d="M726.5 26.5H669C678.91 15.837 689 11 702 11.5C715 12 719.68 16.869 726.5 26.5Z" stroke="#213420"/>
<path d="M530.5 30.535H508C504.274 38.839 503.221 43.435 503 51.535C503.251 61.775 504.97 66.719 511 74.035C518.454 79.981 523.72 81.413 534.5 81.535C540.118 80.947 543.213 80.329 548.5 78.035C559.288 72.123 563.666 66.966 569 55.035C572.475 45.485 572.849 40.121 571 30.535H550.5C553.119 39.035 552 45.535 549.5 53.035C547 60.535 542 65.535 533 65.035C524 64.535 521.5 55.535 522 49.535C522.5 43.535 525.088 36.854 530.5 30.535Z" fill="#213420"/>
<path d="M569 25.035H511.5C521.412 14.372 531.5 9.53499 544.5 10.035C557.5 10.535 562.179 15.404 569 25.035Z" fill="#213420"/>
<path d="M530.5 30.535H508C504.274 38.839 503.221 43.435 503 51.535C503.251 61.775 504.97 66.719 511 74.035C518.454 79.981 523.72 81.413 534.5 81.535C540.118 80.947 543.213 80.329 548.5 78.035C559.288 72.123 563.666 66.966 569 55.035C572.475 45.485 572.849 40.121 571 30.535H550.5C553.119 39.035 552 45.535 549.5 53.035C547 60.535 542 65.535 533 65.035C524 64.535 521.5 55.535 522 49.535C522.5 43.535 525.088 36.854 530.5 30.535Z" stroke="#213420"/>
<path d="M569 25.035H511.5C521.412 14.372 531.5 9.53499 544.5 10.035C557.5 10.535 562.179 15.404 569 25.035Z" stroke="#213420"/>
<path d="M765.5 12.5H745.5L760.5 47L746.5 65H767.5L770 61.5H770.5H771L779.5 82H800.5L785 47L811 12.5H789L774.5 32.5H773.5L765.5 12.5Z" fill="#213420"/>
<path d="M764 69.5H743L733 82H755L764 69.5Z" fill="#213420"/>
<path d="M765.5 12.5H745.5L760.5 47L746.5 65H767.5L770 61.5H770.5H771L779.5 82H800.5L785 47L811 12.5H789L774.5 32.5H773.5L765.5 12.5Z" stroke="#213420"/>
<path d="M764 69.5H743L733 82H755L764 69.5Z" stroke="#213420"/>
<path d="M175.5 13.222L173.5 27.222C173.5 27.222 198 26.722 202 27.222C206 27.722 207.5 31.722 207 34.222C206.5 36.722 204.5 40.222 202 40.722C199.5 41.222 171 41.222 171 41.222L167 65.722H186L188 52.722H201C203.068 54.462 203.689 55.8 204 58.722C203.928 62.173 203.222 63.673 201 65.722H224C225.456 58.796 224 52.222 221 49.722C218 47.222 215.038 46.776 211 46.222V45.222C214.763 43.863 218.5 41.722 221 39.222C223.5 36.722 227 30.722 226.5 24.722C226 18.722 220.5 13.722 213 13.222C205.5 12.722 175.5 13.222 175.5 13.222Z" fill="#213420"/>
<path d="M222 70.722H161.5L159 82.722H199C207 82.722 215.338 79.029 222 70.722Z" fill="#213420"/>
<path d="M175.5 13.222L173.5 27.222C173.5 27.222 198 26.722 202 27.222C206 27.722 207.5 31.722 207 34.222C206.5 36.722 204.5 40.222 202 40.722C199.5 41.222 171 41.222 171 41.222L167 65.722H186L188 52.722H201C203.068 54.462 203.689 55.8 204 58.722C203.928 62.173 203.222 63.673 201 65.722H224C225.456 58.796 224 52.222 221 49.722C218 47.222 215.038 46.776 211 46.222V45.222C214.763 43.863 218.5 41.722 221 39.222C223.5 36.722 227 30.722 226.5 24.722C226 18.722 220.5 13.722 213 13.222C205.5 12.722 175.5 13.222 175.5 13.222Z" stroke="#213420"/>
<path d="M222 70.722H161.5L159 82.722H199C207 82.722 215.338 79.029 222 70.722Z" stroke="#213420"/>
<path d="M171 41L173.5 27H190L188.5 41H171Z" fill="#213420" stroke="#213420"/>
<path d="M191 27.5L189 40.5L190 27.5H191Z" stroke="#213420"/>
<path d="M189 41H189.5" stroke="#213420"/>
</svg>
