<svg xmlns="http://www.w3.org/2000/svg" viewBox="0 0 403.43 277.4"><path d="M327.94,111.91A122.88,122.88,0,0,0,256,135.25a123.23,123.23,0,0,0-71.94-23.34c-71.55,0-129.78,62.27-129.78,138.7s58.23,138.7,129.78,138.7A122.89,122.89,0,0,0,256,366a123.24,123.24,0,0,0,71.94,23.35c71.55,0,129.78-62.28,129.78-138.7S399.49,111.91,327.94,111.91Zm0,252.2c-38.61,0-72.49-22.16-91.09-55.28h13.63c6.54,0,11.82-5.64,11.82-12.64s-5.28-12.64-11.82-12.64H226.37A118.51,118.51,0,0,1,223,267.71H269.4c6.54,0,11.81-5.64,11.81-12.64s-5.27-12.64-11.81-12.64H222.12a127.66,127.66,0,0,1,2.13-15.84h26.23c6.54,0,11.82-5.64,11.82-12.64s-5.28-12.64-11.82-12.64H232.36c17.18-37.92,53.58-64.12,95.5-64.12,58.62,0,106.22,50.89,106.22,113.42S386.48,364.11,327.94,364.11Z" transform="translate(-54.28 -111.91)" style="fill:#000"/></svg>