<svg xmlns="http://www.w3.org/2000/svg" version="1.1" xmlns:xlink="http://www.w3.org/1999/xlink" xmlns:svgjs="http://svgjs.com/svgjs" width="512" height="512" x="0" y="0" viewBox="0 0 512.003 512.003" style="enable-background:new 0 0 512 512" xml:space="preserve"><g><circle cx="211" cy="421.002" r="45" fill="#1d1d1d" data-original="#000000"></circle><circle cx="391" cy="421.002" r="45" fill="#1d1d1d" data-original="#000000"></circle><path d="M15 76.002h64.604l71.938 259.014A15.01 15.01 0 0 0 166 346.002h270a15.012 15.012 0 0 0 14.429-10.884l61-210a15.04 15.04 0 0 0-2.446-13.154 15.048 15.048 0 0 0-11.982-5.962H119.066l-13.608-49.014A15.01 15.01 0 0 0 91 46.002H15c-8.291 0-15 6.709-15 15s6.709 15 15 15zm361 210H226c-8.291 0-15-6.709-15-15s6.709-15 15-15h150c8.291 0 15 6.709 15 15s-6.709 15-15 15zm-180-90h210c8.291 0 15 6.709 15 15s-6.709 15-15 15H196c-8.291 0-15-6.709-15-15s6.709-15 15-15z" fill="#1d1d1d" data-original="#000000"></path></g></svg>