<svg xmlns="http://www.w3.org/2000/svg" viewBox="0 0 152 152">
    <path fill="#283c28" d="M89 11H63c-25.2 0-45.5 20.3-45.5 45.5V76c0 17.6 10.1 33.6 26 41.1v21.8c0 1.1 1 2.1 2.3 2.1.5 0 1.1-.2 1.5-.6l18.8-18.9H89c25.2 0 45.5-20.3 45.5-45.5V56.5C134.5 31.3 114.2 11 89 11zm17.1 85.3-6.5 6.5c-7 6.8-25-1-40.9-17.2s-23-34.5-16.3-41.3l6.5-6.5c2.6-2.4 6.7-2.3 9.3.2l9.4 9.8c2.4 2.6 2.4 6.5-.2 9.1-.7.7-1.5 1.1-2.4 1.5-3.3 1-5 4.2-4.2 7.5 1.6 7.2 10.7 16.2 17.6 18 3.2.8 6.5-1 7.6-4.1 1.1-3.2 4.7-5 8.1-3.9 1 .3 1.8 1 2.6 1.6l9.4 9.8c2.4 2.4 2.4 6.4 0 9zM81.8 41.9c-.7 0-1.3 0-1.9.2-1.1.2-2.3-.7-2.4-2s.7-2.3 1.9-2.4c.8-.2 1.6-.2 2.4-.2 12 0 21.6 9.8 21.8 21.6 0 .8 0 1.6-.2 2.4-.2 1.1-1.1 2.1-2.4 1.9s-2.1-1.1-1.9-2.4c0-.7.2-1.3.2-1.9-.1-9.4-7.9-17.2-17.5-17.2zm13 17.4c-.2 1.1-1.1 2.1-2.4 1.9-1-.2-1.9-1-1.9-1.9 0-4.7-3.9-8.6-8.6-8.6-1.1.2-2.3-.8-2.4-2-.2-1.1.8-2.3 1.9-2.4h.3c7.5 0 13.1 5.8 13.1 13zm16.6 6.9c-.2 1.1-1.3 1.9-2.4 1.8s-1.9-1.3-1.8-2.4v-.3c.5-1.9.7-3.9.7-6 0-14.3-11.7-26-26-26H80c-1.1.2-2.3-.8-2.3-2-.2-1.1.8-2.3 1.9-2.3.8 0 1.6-.2 2.3-.2 16.7 0 30.4 13.6 30.4 30.4-.1 2.3-.4 4.8-.9 7z"></path>
</svg>