<svg xmlns="http://www.w3.org/2000/svg" viewBox="0 0 512 157.6"><polygon points="205 2.6 179 155.3 220.6 155.3 246.6 2.6 205 2.6" style="fill:#000"/><path d="M144.1,180,103.3,284.1,99,268.4c-8-18.9-30.9-46.2-57.7-63.3L78.6,332.4l44-.1L188.2,180Z" transform="translate(0 -177.2)" style="fill:#000"/><path d="M83.2,190.9c-2.4-9.3-9.4-12.1-18.1-12.4H.5l-.5,3c50.2,12.2,83.4,41.5,97.2,76.8Z" transform="translate(0 -177.2)" style="fill:#00"/><path d="M331,209.1a78.15,78.15,0,0,1,31.1,5.8l3.8,1.8,5.6-33.1a107.32,107.32,0,0,0-37.3-6.4c-41.1,0-70.1,20.7-70.3,50.4-.3,21.9,20.6,34.2,36.4,41.5,16.2,7.5,21.7,12.3,21.6,18.9-.1,10.2-12.9,14.9-24.9,14.9-16.7,0-25.5-2.3-39.2-8l-5.4-2.4-5.9,34.2c9.7,4.3,27.7,7.9,46.4,8.1,43.7,0,72.2-20.5,72.5-52.2.2-17.4-10.9-30.6-35-41.5-14.6-7.1-23.5-11.8-23.4-18.9C307.1,215.9,314.7,209.1,331,209.1Z" transform="translate(0 -177.2)" style="fill:#00"/><path d="M478.3,180H446.1c-10,0-17.4,2.7-21.8,12.7L362.5,332.6h43.7s7.1-18.8,8.7-22.9c4.8,0,47.2.1,53.3.1,1.2,5.3,5.1,22.9,5.1,22.9H512ZM427,278.4c3.4-8.8,16.6-42.7,16.6-42.7-.2.4,3.4-8.8,5.5-14.6l2.8,13.2s8,36.5,9.6,44.1Z" transform="translate(0 -177.2)" style="fill:#000"/></svg>